<?xml version="1.0" encoding="UTF-8" standalone="no"?>
<!-- Created with Inkscape (http://www.inkscape.org/) -->
<svg
   xmlns:dc="http://purl.org/dc/elements/1.1/"
   xmlns:cc="http://creativecommons.org/ns#"
   xmlns:rdf="http://www.w3.org/1999/02/22-rdf-syntax-ns#"
   xmlns:svg="http://www.w3.org/2000/svg"
   xmlns="http://www.w3.org/2000/svg"
   xmlns:sodipodi="http://sodipodi.sourceforge.net/DTD/sodipodi-0.dtd"
   xmlns:inkscape="http://www.inkscape.org/namespaces/inkscape"
   width="390"
   height="400"
   id="svg2"
   sodipodi:version="0.32"
   inkscape:version="0.46"
   version="1.0"
   sodipodi:docname="no-flash.svg"
   inkscape:output_extension="org.inkscape.output.svg.inkscape"
   inkscape:export-filename="/home/dml/projects/aspen/branches/VideoEntry/src/main/resources/views/img/no-flash.png"
   inkscape:export-xdpi="90"
   inkscape:export-ydpi="90">
  <defs
     id="defs4">
    <inkscape:perspective
       sodipodi:type="inkscape:persp3d"
       inkscape:vp_x="0 : 526.18109 : 1"
       inkscape:vp_y="0 : 1000 : 0"
       inkscape:vp_z="744.09448 : 526.18109 : 1"
       inkscape:persp3d-origin="372.04724 : 350.78739 : 1"
       id="perspective10" />
  </defs>
  <sodipodi:namedview
     id="base"
     pagecolor="#ffffff"
     bordercolor="#666666"
     borderopacity="1.0"
     gridtolerance="10000"
     guidetolerance="10"
     objecttolerance="10"
     inkscape:pageopacity="0.0"
     inkscape:pageshadow="2"
     inkscape:zoom="1.235"
     inkscape:cx="221.38078"
     inkscape:cy="200"
     inkscape:document-units="px"
     inkscape:current-layer="layer1"
     showgrid="false"
     inkscape:window-width="981"
     inkscape:window-height="719"
     inkscape:window-x="367"
     inkscape:window-y="132" />
  <metadata
     id="metadata7">
    <rdf:RDF>
      <cc:Work
         rdf:about="">
        <dc:format>image/svg+xml</dc:format>
        <dc:type
           rdf:resource="http://purl.org/dc/dcmitype/StillImage" />
      </cc:Work>
    </rdf:RDF>
  </metadata>
  <g
     inkscape:label="Layer 1"
     inkscape:groupmode="layer"
     id="layer1">
    <text
       xml:space="preserve"
       style="font-size:40px;font-style:normal;font-weight:normal;fill:#000000;fill-opacity:1;stroke:none;stroke-width:1px;stroke-linecap:butt;stroke-linejoin:miter;stroke-opacity:1;font-family:Bitstream Vera Sans"
       x="194.86328"
       y="205.81966"
       id="text2383"><tspan
         sodipodi:role="line"
         id="tspan2385"
         x="194.86328"
         y="205.81966"
         style="text-align:center;text-anchor:middle">Sorry!</tspan><tspan
         sodipodi:role="line"
         x="194.86328"
         y="255.81964"
         id="tspan2387"
         style="text-align:center;text-anchor:middle">Adobe Flash Player</tspan><tspan
         sodipodi:role="line"
         x="194.86328"
         y="305.81964"
         id="tspan2391"
         style="text-align:center;text-anchor:middle">is required to</tspan><tspan
         sodipodi:role="line"
         x="194.86328"
         y="355.81964"
         id="tspan2395"
         style="text-align:center;text-anchor:middle">view videos</tspan></text>
    <g
       id="g3138"
       transform="matrix(0.974359,0,0,0.974359,-2.1266141,-33.812685)">
      <path
         style="fill:#7acdd7"
         id="path3058"
         d="M 123.26158,114.15885 C 123.26158,117.57812 125.50098,117.84541 129.00723,117.84541 C 129.00723,121.29273 129.00723,132.31502 129.00723,132.31502 C 129.00723,132.31502 123.17686,132.31502 116.55765,132.31502 C 114.20327,132.31502 111.82074,131.99019 110.23327,130.90972 C 108.46694,129.70888 107.62142,127.74018 107.62142,127.74018 C 104.00345,131.89052 99.109946,133.91193 92.83264,133.91193 C 78.043845,133.91193 65.702317,121.24972 65.702317,105.92934 C 65.702317,90.183278 78.255944,77.202998 93.364405,77.202998 C 99.429677,77.202998 103.89758,79.330348 107.51531,83.905798 L 107.51531,78.798958 L 123.2617,78.798958 C 123.26158,78.799058 123.26158,108.20017 123.26158,114.15885 z M 94.960545,92.630648 C 87.83186,92.630648 81.980045,98.481218 81.980045,105.7171 C 81.980045,112.84506 87.725693,118.58973 94.74818,118.58973 C 101.87583,118.58973 107.72763,112.63258 107.72763,105.39776 C 107.72763,98.376418 101.98278,92.630648 94.960545,92.630648 z" />
      <path
         style="fill:#221f1f"
         id="path3060"
         d="M 156.48234,84.011848 C 159.78074,79.756298 164.56911,77.735488 171.05877,77.735488 C 185.63446,77.735488 197.55225,90.395088 197.55225,105.7172 C 197.55225,120.71874 185.63441,133.37994 171.5908,133.37994 C 165.42055,133.37994 160.84519,131.35862 156.48234,126.46441 C 156.48234,126.46441 156.16488,132.31502 150.18246,132.31502 C 145.51991,132.31502 135.09766,132.31502 135.09766,132.31502 L 135.09766,117.84541 C 135.09766,117.84541 140.73633,118.43685 140.73633,113.95213 C 140.73633,109.46915 140.73633,75.925858 140.73633,75.925858 L 135.09766,75.925858 L 135.09766,61.455948 L 156.48234,61.455948 L 156.48234,84.011848 z M 168.82496,92.630648 C 161.80251,92.630648 156.16379,98.376498 156.16379,105.39776 C 156.16379,112.63258 161.90865,118.58973 168.93109,118.58973 C 175.95344,118.58973 181.59303,112.73954 181.59303,105.60984 C 181.59308,98.481218 175.84646,92.630648 168.82496,92.630648 z" />
      <path
         style="fill:#221f1f"
         id="path3062"
         d="M 218.76158,113.20845 C 218.76158,118.49334 224.39997,117.84541 224.39997,117.84541 L 224.39997,132.31502 C 224.39997,132.31502 216.25872,132.31502 210.68401,132.31502 C 205.10937,132.31502 203.12152,128.94605 203.12152,125.4168 C 203.12152,121.88678 203.12152,75.925798 203.12152,75.925798 L 197.48292,75.925798 L 197.48292,61.455948 L 218.76148,61.455948 C 218.76158,61.455948 218.76158,107.9218 218.76158,113.20845 z" />
      <path
         style="fill:#221f1f"
         id="path3064"
         d="M 251.62573,113.20845 C 251.62573,118.19686 257.26386,117.73986 257.26386,117.73986 L 257.26386,132.31502 L 230.23972,132.31502 L 230.23972,117.84541 C 230.23972,117.84541 235.87847,117.61747 235.87847,113.20845 C 235.87847,108.79766 235.87847,93.375338 235.87847,93.375338 L 230.23972,93.375338 L 230.23972,78.799058 L 251.62573,78.799058 C 251.62573,78.799058 251.62573,108.2178 251.62573,113.20845 z" />
      <path
         style="fill:#221f1f"
         id="path3066"
         d="M 284.44223,85.714608 C 287.52731,80.394468 292.31682,77.735428 298.80664,77.735428 C 306.14762,77.735428 312.53206,81.139098 315.8291,86.778438 C 317.63899,89.863498 318.06326,91.991888 318.06326,97.843798 C 318.06326,97.843798 318.06326,108.16988 318.06326,113.20838 C 318.06326,118.24535 323.70403,117.84539 323.70403,117.84539 L 323.70403,132.31502 L 302.42338,132.31502 L 302.42338,102.20537 C 302.31655,96.353528 299.44368,93.162398 294.01936,93.162398 C 287.10304,93.162398 284.44223,96.673378 284.44223,105.60984 L 284.44223,117.84541 L 290.08094,117.84541 L 290.08094,132.31502 L 263.05838,132.31502 L 263.05838,117.84541 C 263.05838,117.84541 268.6974,118.24911 268.6974,113.20845 C 268.6974,108.16624 268.6974,93.375338 268.6974,93.375338 L 263.05838,93.375338 L 263.05838,78.799058 L 284.44223,78.799058 L 284.44223,85.714608 L 284.44223,85.714608 z" />
      <path
         style="fill:#221f1f"
         id="path3068"
         d="M 350.61168,102.84416 L 360.50657,91.779328 L 356.03792,91.779328 L 356.03792,78.799058 L 383.8061,78.799058 L 383.8061,93.268348 L 378.6994,93.268348 L 367.31532,105.18546 C 367.31532,105.18546 367.31532,105.18546 375.10488,113.83225 C 376.47678,115.35216 377.92725,116.49817 379.42293,117.13329 C 381.09876,117.84361 386.25451,117.84541 386.25451,117.84541 L 386.25451,132.31502 C 386.25451,132.31502 377.6999,132.31502 374.38725,132.31502 C 369.34088,132.31502 366.54883,129.34611 365.16193,127.51981 C 363.77526,125.69525 350.61168,108.37657 350.61168,108.37657 L 350.61168,132.31502 L 329.22617,132.31502 L 329.22617,117.84542 C 329.22617,117.84542 334.86431,117.9337 334.86431,113.20856 C 334.86431,108.48193 334.86431,75.925938 334.86431,75.925938 L 329.22617,75.925938 L 329.22617,61.455948 L 350.61168,61.455948 L 350.61168,102.84416 L 350.61168,102.84416 z" />
      <path
         style="fill:#7acdd7"
         id="path3070"
         d="M 28.699895,102.84416 L 38.594122,91.779328 L 34.125127,91.779328 L 34.125127,78.799058 L 61.894401,78.799058 L 61.894401,93.268348 L 56.787573,93.268348 L 45.403505,105.18546 C 45.403505,105.18546 45.403505,105.18546 53.19424,113.83225 C 54.564812,115.35216 56.015572,116.49817 57.510093,117.13329 C 59.185992,117.84361 64.341769,117.84541 64.341769,117.84541 L 64.341769,132.31502 C 64.341769,132.31502 55.787238,132.31502 52.475342,132.31502 C 47.429751,132.31502 44.635755,129.34611 43.24903,127.51981 C 41.863291,125.69525 28.699895,108.37657 28.699895,108.37657 L 28.699895,132.31502 L 7.3141525,132.31502 L 7.3141525,117.84542 L 12.952809,117.84542 L 12.952809,75.925798 L 7.3141525,75.925798 L 7.3141525,61.455948 L 28.699895,61.455948 L 28.699895,102.84416 z" />
      <path
         style="fill:#221f1f"
         id="path3072"
         d="M 15.416004,163.30533 C 10.918805,163.30533 7.5509015,159.95961 7.5509015,155.37655 C 7.5509015,150.7943 10.918805,147.4479 15.416004,147.4479 C 19.913145,147.4479 23.279962,150.7943 23.279962,155.37655 C 23.280019,159.95961 19.913145,163.30533 15.416004,163.30533 z M 15.416004,148.85516 C 11.537046,148.85516 9.2137875,151.90264 9.2137875,155.37655 C 9.2137875,158.85076 11.537046,161.89814 15.416004,161.89814 C 19.294892,161.89814 21.618195,158.85076 21.618195,155.37655 C 21.618195,151.90264 19.294892,148.85516 15.416004,148.85516 z" />
      <path
         style="fill:#221f1f"
         id="path3074"
         d="M 26.547534,147.83265 L 30.938544,147.83265 C 34.007787,147.83265 35.904548,149.15365 35.904548,151.8611 C 35.904548,154.5667 34.007787,155.91019 30.938544,155.91019 L 28.082756,155.91019 L 28.082756,162.92264 L 26.547587,162.92264 L 26.547587,147.83265 L 26.547534,147.83265 z M 28.082756,154.50273 L 30.554494,154.50273 C 33.304114,154.50273 34.241705,153.30958 34.241705,151.8611 C 34.241705,150.41098 33.304114,149.23808 30.554494,149.23808 L 28.082756,149.23808 L 28.082756,154.50273 z" />
      <path
         style="fill:#221f1f"
         id="path3076"
         d="M 41.174719,161.51523 L 49.253222,161.51523 L 49.253222,162.92264 L 39.640856,162.92264 L 39.640856,147.83265 L 48.997835,147.83265 L 48.997835,149.23808 L 41.174719,149.23808 L 41.174719,154.37531 L 48.485795,154.37531 L 48.485795,155.78289 L 41.174719,155.78289 L 41.174719,161.51523 z" />
      <path
         style="fill:#221f1f"
         id="path3078"
         d="M 64.052397,160.62064 L 64.094605,160.62064 L 64.094605,147.83265 L 65.629715,147.83265 L 65.629715,162.92264 L 63.71124,162.92264 L 54.716929,150.00711 L 54.674747,150.00711 L 54.674747,162.92264 L 53.139885,162.92264 L 53.139885,147.83265 L 55.058093,147.83265 L 64.052397,160.62064 z" />
      <path
         style="fill:#221f1f"
         id="path3080"
         d="M 89.790679,160.53406 C 88.788263,162.09146 86.699903,163.30533 84.206429,163.30533 C 79.709234,163.30533 76.341379,159.95961 76.341379,155.37655 C 76.341379,150.7943 79.709234,147.4479 84.206429,147.4479 C 86.081635,147.4479 88.10607,148.15264 89.42805,149.83564 L 88.08537,150.83716 C 87.489144,149.85677 85.804534,148.85516 84.206429,148.85516 C 80.327521,148.85516 78.004212,151.90264 78.004212,155.37655 C 78.004212,158.85076 80.327521,161.89814 84.206429,161.89814 C 85.783843,161.89814 87.403403,161.38701 88.532634,159.64011 L 89.790679,160.53406 z" />
      <path
         style="fill:#221f1f"
         id="path3082"
         d="M 99.646424,163.30533 C 95.149245,163.30533 91.781358,159.95961 91.781358,155.37655 C 91.781358,150.7943 95.149245,147.4479 99.646424,147.4479 C 104.14363,147.4479 107.51069,150.7943 107.51069,155.37655 C 107.51069,159.95961 104.14363,163.30533 99.646424,163.30533 z M 99.646424,148.85516 C 95.767504,148.85516 93.44421,151.90264 93.44421,155.37655 C 93.44421,158.85076 95.767504,161.89814 99.646424,161.89814 C 103.52535,161.89814 105.84864,158.85076 105.84864,155.37655 C 105.84864,151.90264 103.52535,148.85516 99.646424,148.85516 z" />
      <path
         style="fill:#221f1f"
         id="path3084"
         d="M 112.40791,161.51523 L 119.44083,161.51523 L 119.44083,162.92264 L 110.87295,162.92264 L 110.87295,147.83265 L 112.40785,147.83265 L 112.40785,161.51523 L 112.40791,161.51523 z" />
      <path
         style="fill:#221f1f"
         id="path3086"
         d="M 123.92354,161.51523 L 130.95647,161.51523 L 130.95647,162.92264 L 122.38865,162.92264 L 122.38865,147.83265 L 123.9235,147.83265 L 123.9235,161.51523 L 123.92354,161.51523 z" />
      <path
         style="fill:#221f1f"
         id="path3088"
         d="M 133.64796,162.92264 L 131.8574,162.92264 L 138.42233,147.83265 L 139.91408,147.83265 L 146.47892,162.92264 L 144.6884,162.92264 L 143.02556,158.95712 L 135.30996,158.95712 L 133.64796,162.92264 z M 135.88582,157.5509 L 142.42919,157.5509 L 139.16825,149.6213 L 135.88582,157.5509 z" />
      <path
         style="fill:#221f1f"
         id="path3090"
         d="M 149.38581,147.83265 L 153.88301,147.83265 C 156.37621,147.83265 158.74282,148.77027 158.74282,151.62568 C 158.74282,153.26641 157.76192,154.54633 156.07844,154.92971 L 156.07844,154.97271 C 158.18848,155.14344 159.48874,156.54855 159.48874,158.74547 C 159.48874,159.72432 158.84878,162.92264 153.98996,162.92264 L 149.38574,162.92264 L 149.38574,147.83265 L 149.38581,147.83265 z M 150.91985,154.43876 L 154.01071,154.43876 C 155.48189,154.43876 157.07995,153.73627 157.07995,151.79688 C 157.07995,151.17927 156.76059,149.23808 153.8612,149.23808 L 150.91985,149.23808 L 150.91985,154.43876 L 150.91985,154.43876 z M 150.91985,161.51523 L 153.8612,161.51523 C 156.07838,161.51523 157.82588,160.6411 157.82588,158.65923 C 157.82588,156.67695 156.50499,155.71882 154.05393,155.71882 L 150.91992,155.71882 L 150.91992,161.51523 L 150.91985,161.51523 z" />
      <path
         style="fill:#221f1f"
         id="path3092"
         d="M 170.51512,163.30533 C 166.01773,163.30533 162.64983,159.95961 162.64983,155.37655 C 162.64983,150.7943 166.01773,147.4479 170.51512,147.4479 C 175.01204,147.4479 178.37914,150.7943 178.37914,155.37655 C 178.37914,159.95961 175.01204,163.30533 170.51512,163.30533 z M 170.51512,148.85516 C 166.63595,148.85516 164.31266,151.90264 164.31266,155.37655 C 164.31266,158.85076 166.63595,161.89814 170.51512,161.89814 C 174.39401,161.89814 176.71737,158.85076 176.71737,155.37655 C 176.71737,151.90264 174.39401,148.85516 170.51512,148.85516 z" />
      <path
         style="fill:#221f1f"
         id="path3094"
         d="M 183.84399,162.92264 L 182.31068,162.92264 L 182.31068,147.83265 L 186.9555,147.83265 C 190.02543,147.83265 191.92316,149.15365 191.92316,151.8611 C 191.92316,153.94865 190.53691,155.54773 188.06399,155.76184 L 192.41179,162.92264 L 190.53694,162.92264 L 186.40308,155.91019 L 183.84411,155.91019 L 183.84411,162.92264 L 183.84399,162.92264 z M 183.84399,154.50273 L 186.57211,154.50273 C 189.32276,154.50273 190.25846,153.30958 190.25846,151.8611 C 190.25846,150.41098 189.32276,149.23808 186.57211,149.23808 L 183.84399,149.23808 L 183.84399,154.50273 z" />
      <path
         style="fill:#221f1f"
         id="path3096"
         d="M 195.55322,162.92264 L 193.76474,162.92264 L 200.32977,147.83265 L 201.81747,147.83265 L 208.38248,162.92264 L 206.59399,162.92264 L 204.93275,158.95712 L 197.21427,158.95712 L 195.55322,162.92264 z M 197.793,157.5509 L 204.33535,157.5509 L 201.07348,149.6213 L 197.793,157.5509 z" />
      <path
         style="fill:#221f1f"
         id="path3098"
         d="M 214.68055,162.92264 L 213.14688,162.92264 L 213.14688,149.23808 L 208.097,149.23808 L 208.097,147.83265 L 219.73469,147.83265 L 219.73469,149.23808 L 214.68055,149.23808 L 214.68055,162.92264 z" />
      <path
         style="fill:#221f1f"
         id="path3100"
         d="M 224.46969,162.92264 L 222.93604,162.92264 L 222.93604,147.83265 L 224.46969,147.83265 L 224.46969,162.92264 z" />
      <path
         style="fill:#221f1f"
         id="path3102"
         d="M 235.93863,163.30533 C 231.44058,163.30533 228.07368,159.95961 228.07368,155.37655 C 228.07368,150.7943 231.44058,147.4479 235.93863,147.4479 C 240.43668,147.4479 243.80361,150.7943 243.80361,155.37655 C 243.80361,159.95961 240.43668,163.30533 235.93863,163.30533 z M 235.93863,148.85516 C 232.0606,148.85516 229.73438,151.90264 229.73438,155.37655 C 229.73438,158.85076 232.0606,161.89814 235.93863,161.89814 C 239.81611,161.89814 242.13929,158.85076 242.13929,155.37655 C 242.13929,151.90264 239.81611,148.85516 235.93863,148.85516 z" />
      <path
         style="fill:#221f1f"
         id="path3104"
         d="M 258.36316,160.62064 L 258.40458,160.62064 L 258.40458,147.83265 L 259.93748,147.83265 L 259.93748,162.92264 L 258.02118,162.92264 L 249.02507,150.00711 L 248.98351,150.00711 L 248.98351,162.92264 L 247.4506,162.92264 L 247.4506,147.83265 L 249.36761,147.83265 L 258.36316,160.62064 z" />
      <path
         id="path3106"
         d="M 390.44384,78.215118 L 390.44384,74.530438 L 389.04223,74.530438 L 389.04223,73.888108 L 392.57832,73.888108 L 392.57832,74.530438 L 391.16622,74.530438 L 391.16622,78.215118 L 390.44384,78.215118 z M 393.06116,78.215118 L 393.06116,73.888108 L 394.12338,73.888108 L 395.21715,77.344348 L 396.27357,73.888108 L 397.31415,73.888108 L 397.31415,78.215118 L 396.65603,78.215118 L 396.65603,74.583798 L 395.54068,78.215118 L 394.88773,78.215118 L 393.72501,74.530438 L 393.72501,78.215118 L 393.06116,78.215118 z" />
    </g>
  </g>
</svg>
